<svg width="490" height="461" viewBox="0 0 490 461" fill="none" xmlns="http://www.w3.org/2000/svg">
<path opacity="0.1" d="M279.228 8.73038C253.187 3.63994 212.067 3.51679 218.375 14.2177C224.683 24.9049 266.351 57.2538 284.989 48.7561C303.626 40.2583 304.447 13.6703 279.228 8.73038Z" fill="#6984CB"/>
<path d="M192.725 249.993H164.222V400.216H192.725V249.993Z" fill="#6984CB"/>
<path d="M173.54 249.993H164.222V400.216H173.54V249.993Z" fill="#395294"/>
<path d="M204.064 407.687C204.064 407.687 214.52 379.963 212.896 364.333C211.272 348.703 196.506 348.703 194.25 364.658C191.628 383.226 186.948 400.312 186.948 400.312L204.064 407.687Z" fill="#91A9EA"/>
<path d="M203.32 366.465C203.32 366.465 201.148 390.904 195.763 404.095" stroke="#405CC6" stroke-width="1.0016" stroke-miterlimit="10" stroke-linecap="round"/>
<path d="M149.703 400.216C146.09 386.655 144.325 375.516 143.395 368.14C140.316 343.769 143.08 324.584 132.434 308.382C127.726 301.226 122.677 299.803 120.104 299.885C115.425 300.035 110.238 303.169 109.144 311.393C105.531 338.46 131.626 400.202 131.626 400.202H149.703V400.216Z" fill="url(#paint0_linear)"/>
<path d="M275.5 120.625C247.229 121.363 224.527 144.517 224.527 172.966V249.993H103.916V172.966C103.916 144.052 127.357 120.611 156.271 120.611H274.145C274.597 120.611 275.048 120.611 275.5 120.625Z" fill="#555F79"/>
<path d="M326.5 172.966V249.993H224.527V172.966C224.527 146.186 244.629 124.1 270.574 120.98C272.188 120.789 273.83 120.666 275.486 120.625H275.527C303.812 121.363 326.5 144.517 326.5 172.966Z" fill="#6984CB"/>
<path d="M316.634 172.966V249.993H224.527V172.966C224.527 146.186 244.629 124.1 270.574 120.98C296.532 124.1 316.634 146.186 316.634 172.966Z" fill="#364C87"/>
<path d="M275.5 120.625C273.844 120.666 272.202 120.789 270.574 120.98C244.629 124.1 224.527 146.186 224.527 172.966V214.907H103.916V172.966C103.916 144.052 127.357 120.611 156.271 120.611H274.145C274.597 120.611 275.048 120.611 275.5 120.625Z" fill="#6984CB"/>
<path d="M145.584 232.176C145.584 234.899 143.381 237.116 140.644 237.116C137.921 237.116 135.704 234.913 135.704 232.176C135.704 229.453 137.908 227.236 140.644 227.236C143.381 227.25 145.584 229.453 145.584 232.176Z" fill="#F2F4F9"/>
<path d="M164.222 232.176C164.222 234.899 162.018 237.116 159.282 237.116C156.559 237.116 154.342 234.913 154.342 232.176C154.342 229.453 156.545 227.236 159.282 227.236C162.018 227.25 164.222 229.453 164.222 232.176Z" fill="#F2F4F9"/>
<path d="M180.67 232.176C180.67 234.899 178.467 237.116 175.73 237.116C173.007 237.116 170.79 234.913 170.79 232.176C170.79 229.453 172.993 227.236 175.73 227.236C178.467 227.25 180.67 229.453 180.67 232.176Z" fill="#F2F4F9"/>
<path d="M326.5 249.993V313.582C326.5 339.021 305.878 359.629 280.453 359.629H270.587C245.149 359.629 224.541 339.007 224.541 313.582V249.993H326.5Z" fill="#395294"/>
<path d="M326.5 249.993V313.582C326.5 331.331 316.456 346.752 301.732 354.429C295.369 357.754 288.13 359.629 280.453 359.629H274.419C248.98 359.629 228.372 339.007 228.372 313.582V249.993H326.5Z" fill="#395294"/>
<path d="M136.265 400.216C136.265 400.216 132.448 345.439 111.867 333.055C91.2861 320.671 89.1377 340.499 100.632 359.643C118.722 389.802 117.901 400.216 117.901 400.216H136.265Z" fill="#395294"/>
<path d="M117.696 385.916C117.696 385.916 99.8111 362.653 89.6713 364.842C79.5314 367.032 93.5028 400.202 93.5028 400.202H128.151L117.696 385.916Z" fill="#6984CB"/>
<path d="M140.658 400.216C140.658 400.216 142.026 370.617 149.703 356.906C157.38 343.194 170.94 349.037 166.698 364.582C161.758 382.673 159.295 400.216 159.295 400.216H140.658Z" fill="#6984CB"/>
<path d="M91.5873 371.698C91.5873 371.698 101.946 385.683 104.3 400.202" stroke="#F2F4F9" stroke-width="1.0016" stroke-miterlimit="10" stroke-linecap="round"/>
<path d="M103.328 340.8C103.328 340.8 119.27 365.13 128.041 400.215" stroke="#F2F4F9" stroke-width="1.0016" stroke-miterlimit="10" stroke-linecap="round"/>
<path d="M157.653 362.653C157.653 362.653 149.977 385.957 149.703 400.202" stroke="#F2F4F9" stroke-width="1.0016" stroke-miterlimit="10" stroke-linecap="round"/>
<path d="M270.574 120.98C244.629 124.1 224.527 146.186 224.527 172.966V214.907H165.809C172.774 209.954 178.467 200.06 178.467 180.916V167.944C178.467 142.013 199.485 120.98 225.43 120.98H270.574Z" fill="#91A9EA"/>
<path d="M202.058 180.916C199.335 180.916 197.118 178.713 197.118 175.976V52.6287H206.984V175.976C206.984 178.713 204.781 180.916 202.058 180.916Z" fill="#242629"/>
<path d="M206.984 52.6287H169.982L206.984 83.0619V52.6287Z" fill="#91A9EA"/>
<path d="M301.732 354.443C295.369 357.768 288.13 359.643 280.453 359.643H274.419C248.98 359.643 228.372 339.021 228.372 313.596V250.007H235.57L301.732 354.443Z" fill="#6984CB"/>
<path d="M312.145 234.895C312.163 236.726 311.035 238.352 309.283 239.363C308.433 239.854 307.409 240.196 306.316 240.346C305.952 240.387 305.587 240.415 305.223 240.415L224.568 240.742V174.019L304.772 173.691C307.288 173.677 309.508 174.729 310.74 176.3C311.382 177.134 311.764 178.104 311.781 179.156L311.798 182.462L312.145 234.895Z" fill="#6984CB"/>
<path opacity="0.5" d="M311.379 182.435C311.352 182.449 311.338 182.462 311.311 182.476C297.408 189.701 264.484 216.07 261.063 216.508C259.476 216.7 233.791 201.182 224.568 194.901V175.059L305.769 173.705C307.753 173.691 309.504 174.745 310.476 176.318C310.982 177.153 311.283 178.125 311.297 179.178L311.379 182.435Z" fill="#F2F4F9"/>
<path d="M310.476 176.305L262.5 207.997C262.062 208.284 261.597 208.517 261.118 208.681C260.803 208.79 260.488 208.872 260.174 208.927C259.257 209.091 258.313 209.05 257.41 208.79C257.218 208.736 257.026 208.681 256.835 208.599C256.438 208.448 256.055 208.257 255.699 208.01L245.819 201.579L243.931 200.347L224.568 188.059L224.568 173.691H305.755C307.753 173.691 309.505 174.731 310.476 176.305Z" fill="#F2F4F9"/>
<path d="M313.076 189.687C313.076 189.687 314.349 189.482 316.401 188.907" stroke="#555F79" stroke-width="1.6026" stroke-miterlimit="10" stroke-linecap="round"/>
<path d="M323.927 186.171C337.173 180.205 356.783 164.878 348.162 127.74C335.559 73.4694 337.201 29.5986 369.262 12.0557C393.141 -1.01253 419.92 8.42943 432.031 14.0946" stroke="#555F79" stroke-width="1.6026" stroke-miterlimit="10" stroke-linecap="round" stroke-dasharray="4.88 4.88"/>
<path d="M435.63 15.8735C437.559 16.8862 438.613 17.543 438.613 17.543" stroke="#555F79" stroke-width="1.6026" stroke-miterlimit="10" stroke-linecap="round"/>
<path d="M441.172 20.1155L433.139 30.0364L472.33 44.6782L454.623 5.4873L446.358 16.1061L456.744 28.8596L441.172 20.1155Z" fill="#5A76C2"/>
<path d="M18.3365 37.6446L30.3784 41.8456L30.8848 0L0 29.9406L12.7945 34.1142L21.2786 20.0197L18.3365 37.6446Z" fill="#6984CB"/>
<path d="M224.527 201.004C224.527 201.004 270.382 194.6 254.413 163.099C216.043 87.4406 100.44 170.954 53.7506 132.666C4.95351 92.6406 13.7249 36.4541 13.7249 36.4541" stroke="#555F79" stroke-width="1.6026" stroke-miterlimit="10" stroke-linecap="round" stroke-dasharray="5.01 5.01"/>
<path opacity="0.1" d="M415.87 52.6286C411.04 42.6941 394.769 49.3445 404.635 62.4948C414.502 75.6588 424.915 71.2662 415.87 52.6286Z" fill="#6984CB"/>
<path opacity="0.1" d="M472.604 58.9369C464.421 57.8695 441.076 64.2463 441.076 77.8482C441.076 85.5249 458.893 91.5595 476.709 83.0618C494.539 74.564 495.634 61.9474 472.604 58.9369Z" fill="#6984CB"/>
<path d="M68 400C68 400 68.8201 407.981 98.1264 407.981C127.419 407.981 153.718 406.143 184.924 420.872C216.144 435.602 292.814 438.06 313.071 427.62C333.328 417.188 284.598 400 284.598 400H68Z" fill="#EDEFF4"/>
<defs>
<linearGradient id="paint0_linear" x1="129.394" y1="361.896" x2="120.555" y2="284.113" gradientUnits="userSpaceOnUse">
<stop stop-color="#91A9EA"/>
<stop offset="1" stop-color="#658BFD"/>
</linearGradient>
</defs>
</svg>
