<svg width="90" height="27" viewBox="0 0 90 27" fill="none" xmlns="http://www.w3.org/2000/svg">
<path d="M4.92 26V7.892L12.948 18.98H13.596L21.552 7.784V26H25.944V0.799998H21.768L13.56 12.572L4.956 0.799998H0.492V26H4.92ZM31.0692 13.4C31.0692 17.252 32.2932 20.384 34.7772 22.796C37.2612 25.208 40.3932 26.396 44.1732 26.396C47.9532 26.396 51.0852 25.172 53.5692 22.724C56.0532 20.276 57.3132 17.18 57.3132 13.4C57.3132 9.548 56.0532 6.416 53.5692 4.004C51.0852 1.592 47.9532 0.403999 44.1732 0.403999C40.3572 0.403999 37.2252 1.664 34.7412 4.148C32.2932 6.632 31.0692 9.692 31.0692 13.4ZM35.7492 13.4C35.7492 10.808 36.5412 8.684 38.1252 7.028C39.7452 5.372 41.7612 4.544 44.1732 4.544C46.5852 4.544 48.5652 5.372 50.1852 7.028C51.8052 8.684 52.6332 10.808 52.6332 13.4C52.6332 15.956 51.8772 18.044 50.3292 19.736C48.8172 21.428 46.7652 22.256 44.1732 22.256C41.7972 22.256 39.7812 21.428 38.1612 19.736C36.5412 18.044 35.7492 15.92 35.7492 13.4ZM67.4053 26V0.799998H62.9773V26H67.4053ZM85.0338 19.304C85.0338 21.176 83.5218 22.256 81.3618 22.256C79.3098 22.256 76.9698 21.248 75.5658 19.412L73.0458 22.436C73.6218 23.66 74.7018 24.632 76.2858 25.352C77.9058 26.036 79.5618 26.396 81.2898 26.396C83.7018 26.396 85.6818 25.748 87.3018 24.416C88.9218 23.084 89.7138 21.356 89.7138 19.268C89.7138 16.64 88.4538 14.624 86.7618 13.616C85.9338 13.076 84.9978 12.572 83.9898 12.104C81.1458 10.772 78.3018 9.98 78.3018 7.316C78.3018 5.624 79.6698 4.544 81.8298 4.544C83.5218 4.544 84.9978 5.156 86.2938 6.416L88.6698 3.104C87.0498 1.304 84.6378 0.403999 81.4698 0.403999C79.0938 0.403999 77.1858 1.088 75.7458 2.42C74.3418 3.752 73.6218 5.372 73.6218 7.352C73.6218 15.524 85.0338 14.372 85.0338 19.304Z" fill="#555F79"/>
</svg>
