<svg width="106" height="106" viewBox="0 0 106 106" fill="none" xmlns="http://www.w3.org/2000/svg">
<circle cx="52.5" cy="53.5" r="52.5" fill="#F2F4F9"/>
<path fill-rule="evenodd" clip-rule="evenodd" d="M50.3985 53.1212C64.9168 53.1212 76.6863 41.3517 76.6863 26.8333C76.6863 12.6467 65.4486 1.08473 51.3893 0.563739C51.8541 0.551599 52.3204 0.545492 52.7882 0.545492C81.8249 0.545492 105.364 24.0845 105.364 53.1212C105.364 82.158 81.8249 105.697 52.7882 105.697C23.7514 105.697 0.212402 82.158 0.212402 53.1212C0.212402 26.8301 19.5103 5.04613 44.7141 1.16161C32.9283 3.75954 24.1106 14.2667 24.1106 26.8333C24.1106 41.3517 35.8801 53.1212 50.3985 53.1212ZM44.7141 1.16161C46.5446 0.758115 48.4467 0.54541 50.3985 0.54541C50.7302 0.54541 51.0605 0.551556 51.3893 0.563739C49.1257 0.622862 46.8977 0.825055 44.7141 1.16161Z" fill="#555F79"/>
<path fill-rule="evenodd" clip-rule="evenodd" d="M49.6015 0.54541C47.9284 0.595229 46.2946 0.801375 44.7142 1.14974C19.5104 5.03424 0.212402 26.8182 0.212402 53.1094C0.212402 79.4008 19.5106 101.185 44.7147 105.069C32.9286 102.471 24.1106 91.9641 24.1106 79.3973C24.1106 65.1455 35.4518 53.5426 49.6015 53.1213V53.0975C35.4518 52.6761 24.1106 41.0732 24.1106 26.8214C24.1106 14.2548 32.9284 3.74764 44.7142 1.14974C46.3204 0.90218 47.9507 0.727318 49.6015 0.628624V0.54541Z" fill="#6984CB"/>
</svg>
