<svg width="673" height="235" viewBox="0 0 673 235" fill="none" xmlns="http://www.w3.org/2000/svg">
<path opacity="0.1" d="M230.25 127.75C230.25 89.6 213.1 70.7 179.15 70.7C155.7 70.7 133.3 81.9 121.75 99.75C116.15 81.55 98.3 70.7 73.45 70.7C52.45 70.7 31.1 80.5 18.85 95.55V73.5H0.650001V231H18.85V112.7C28.65 98.7 46.15 87.85 66.8 87.85C92 87.85 106.35 102.2 106.35 124.6V231H124.55V125.3C124.55 119.7 124.2 115.85 123.85 114.1C133.3 98.35 150.8 87.85 172.15 87.85C198.75 87.85 212.05 102.9 212.05 132.65V231H230.25V127.75ZM294.191 211.05C309.591 226.45 329.541 234.15 353.691 234.15C377.841 234.15 397.791 226.45 413.191 211.05C428.591 195.65 436.291 176.05 436.291 152.25C436.291 128.45 428.591 108.85 413.191 93.45C397.791 78.05 377.841 70.35 353.691 70.35C329.541 70.35 309.591 78.05 294.191 93.45C278.791 108.85 271.091 128.45 271.091 152.25C271.091 176.05 278.791 195.65 294.191 211.05ZM353.691 217C335.141 217 320.091 211.05 308.191 198.8C296.291 186.55 290.341 171.15 290.341 152.25C290.341 133.35 296.291 117.95 308.191 105.7C320.441 93.45 335.491 87.5 353.691 87.5C372.241 87.5 387.291 93.45 399.191 105.7C411.091 117.95 417.041 133.35 417.041 152.25C417.041 171.5 411.091 186.9 399.191 199.15C387.641 211.05 372.241 217 353.691 217ZM507.825 231V73.5H489.625V231H507.825ZM486.475 12.25C486.475 20.3 492.075 25.2 499.425 25.2C506.075 25.2 511.325 20.3 511.325 12.25C511.325 5.59998 505.375 0.699982 499.425 0.699982C492.425 0.699982 486.475 5.24999 486.475 12.25ZM653.684 189.7C653.684 207.9 637.934 218.05 618.334 218.05C610.284 218.05 601.534 216.3 592.434 212.8C583.334 209.3 576.684 204.75 572.484 199.5L562.334 211.4C566.184 217.35 573.184 222.6 584.034 227.15C594.884 231.7 605.384 234.15 616.234 234.15C648.434 234.15 672.934 218.4 672.934 189C672.934 134.05 585.784 152.95 585.784 111.65C585.784 97.65 598.384 86.45 617.634 86.45C634.434 86.45 648.084 91.35 658.934 101.5L666.634 87.85C655.434 76.3 638.984 70.35 617.284 70.35C586.834 70.35 566.534 86.8 566.534 112C566.534 169.4 653.684 150.5 653.684 189.7Z" fill="#8C97BD"/>
</svg>
